<svg width="996" height="188" viewBox="0 0 996 188" fill="none" xmlns="http://www.w3.org/2000/svg">
    <path fill-rule="evenodd" clip-rule="evenodd"
          d="M10.3955 91.7863C11.1595 91.7863 11.806 91.1699 11.8353 90.4067C13.7159 46.7022 49.8868 11.7445 94.0794 11.7445C138.272 11.7445 174.443 46.7316 176.324 90.4067C176.353 91.1699 176.97 91.7863 177.763 91.7863H186.608C187.43 91.7863 188.106 91.0818 188.077 90.26C186.108 40.1568 144.707 0.00390625 94.0794 0.00390625C43.4519 0.00390625 2.05067 40.1568 0.081978 90.26C0.0525946 91.0818 0.728413 91.7863 1.55115 91.7863H10.3955ZM177.763 96.1871C176.999 96.1871 176.353 96.8035 176.324 97.5666C174.443 141.271 138.272 176.229 94.0794 176.229C49.8868 176.229 13.7159 141.271 11.8353 97.596C11.806 96.8328 11.1889 96.2164 10.3955 96.2164H1.55115C0.728413 96.2164 0.0525946 96.9209 0.081978 97.7427C2.05067 147.846 43.4519 187.999 94.0794 187.999C144.707 187.999 186.108 147.846 188.077 97.7427C188.106 96.9209 187.43 96.2164 186.608 96.2164H177.763V96.1871ZM99.0142 148.494C110.415 147.466 120.787 142.917 129.103 135.96L129.132 136.019C130.308 135.021 132.041 135.051 133.128 136.137L143.589 146.586C144.764 147.76 144.735 149.726 143.471 150.842C131.483 161.262 116.174 167.954 99.3668 169.128C97.692 169.245 96.2816 167.866 96.2816 166.193V151.399C96.2816 149.873 97.4863 148.64 99.0142 148.494ZM150.965 143.326C161.396 131.35 168.095 116.058 169.271 99.269C169.388 97.596 168.007 96.1871 166.332 96.1871H151.523C149.995 96.1871 148.761 97.3905 148.614 98.9168C147.586 110.305 143.031 120.666 136.067 128.973C135.068 130.147 135.098 131.879 136.185 132.965L146.645 143.414C147.821 144.588 149.819 144.588 150.906 143.296L150.965 143.326ZM99.3668 18.9052C116.174 20.0792 131.483 26.7714 143.471 37.1912L143.442 37.2499C144.735 38.3359 144.735 40.3318 143.559 41.5059L133.099 51.955C132.012 53.041 130.278 53.0704 129.103 52.0724C120.787 45.1161 110.415 40.5666 99.0142 39.5393C97.4863 39.3926 96.2816 38.1598 96.2816 36.6335V21.8403C96.2816 20.1673 97.692 18.7878 99.3668 18.9052ZM136.095 58.9981C143.03 67.3046 147.614 77.6657 148.642 89.0541C148.789 90.5804 150.023 91.7838 151.551 91.7838H166.36C168.035 91.7838 169.416 90.3749 169.299 88.7019C168.123 71.9128 161.424 56.6207 150.993 44.6452C149.876 43.3831 147.908 43.3537 146.732 44.5278L136.272 54.977C135.185 56.063 135.155 57.7947 136.154 58.9688L136.095 58.9981ZM89.1433 39.5095C77.7425 40.5368 67.3702 45.0863 59.0547 52.0427L59.0253 51.984C57.85 52.9819 56.1163 52.9526 55.0292 51.8666L44.5687 41.4174C43.3933 40.2433 43.4227 38.2768 44.6862 37.1614C56.6746 26.7416 71.9834 20.0495 88.7907 18.8754C90.4655 18.758 91.8759 20.1375 91.8759 21.8105V36.6037C91.8759 38.13 90.6712 39.3628 89.1433 39.5095ZM37.1939 44.6762C26.7628 56.6516 20.0634 71.9438 18.888 88.7329C18.7705 90.4059 20.1515 91.8148 21.8264 91.8148H36.6356C38.1636 91.8148 39.3977 90.6114 39.5446 89.0851C40.573 77.6967 45.1274 67.3356 52.0913 59.0291C53.0903 57.855 53.0609 56.1233 51.9737 55.0373L41.5133 44.5881C40.3379 43.4141 38.3399 43.4141 37.2527 44.7055L37.1939 44.6762ZM39.5148 98.9168C40.5432 110.305 45.127 120.666 52.0615 128.973L52.0027 129.002C53.0018 130.176 52.9724 131.908 51.8852 132.994L41.4247 143.443C40.2494 144.617 38.2807 144.588 37.1641 143.326C26.733 131.35 20.0336 116.058 18.8583 99.269C18.7407 97.596 20.1218 96.1871 21.7966 96.1871H36.6058C38.1338 96.1871 39.3679 97.3905 39.5148 98.9168ZM44.6874 150.811C56.6758 161.231 71.9846 167.923 88.7919 169.097C90.4667 169.215 91.8771 167.835 91.8771 166.162V151.369C91.8771 149.843 90.6724 148.61 89.1445 148.463C77.7437 147.436 67.3714 142.886 59.0559 135.93C57.8805 134.932 56.1469 134.961 55.0597 136.047L44.5992 146.496C43.4239 147.671 43.4239 149.666 44.7168 150.752L44.6874 150.811ZM89.7768 69.6298L96.4334 55.4612L111.005 86.4557L89.7768 69.6298ZM89.9627 86.7066L93.5859 94.4055L106.618 93.1992L104.534 88.7551L83.3061 71.9292L71.7905 96.4312L86.0193 95.1111L89.9627 86.7066ZM110.733 98.5687L122.277 123.139H65.8786L75.9056 101.801L90.1288 100.481L85.326 110.695H102.824L97.6954 99.7807L110.733 98.5687Z"
          fill="white"/>
    <path fill-rule="evenodd" clip-rule="evenodd"
          d="M10.3955 91.7863C11.1595 91.7863 11.806 91.1699 11.8353 90.4067C13.7159 46.7022 49.8868 11.7445 94.0794 11.7445C138.272 11.7445 174.443 46.7316 176.324 90.4067C176.353 91.1699 176.97 91.7863 177.763 91.7863H186.608C187.43 91.7863 188.106 91.0818 188.077 90.26C186.108 40.1568 144.707 0.00390625 94.0794 0.00390625C43.4519 0.00390625 2.05067 40.1568 0.081978 90.26C0.0525946 91.0818 0.728413 91.7863 1.55115 91.7863H10.3955ZM177.763 96.1871C176.999 96.1871 176.353 96.8035 176.324 97.5666C174.443 141.271 138.272 176.229 94.0794 176.229C49.8868 176.229 13.7159 141.271 11.8353 97.596C11.806 96.8328 11.1889 96.2164 10.3955 96.2164H1.55115C0.728413 96.2164 0.0525946 96.9209 0.081978 97.7427C2.05067 147.846 43.4519 187.999 94.0794 187.999C144.707 187.999 186.108 147.846 188.077 97.7427C188.106 96.9209 187.43 96.2164 186.608 96.2164H177.763V96.1871ZM99.0142 148.494C110.415 147.466 120.787 142.917 129.103 135.96L129.132 136.019C130.308 135.021 132.041 135.051 133.128 136.137L143.589 146.586C144.764 147.76 144.735 149.726 143.471 150.842C131.483 161.262 116.174 167.954 99.3668 169.128C97.692 169.245 96.2816 167.866 96.2816 166.193V151.399C96.2816 149.873 97.4863 148.64 99.0142 148.494ZM150.965 143.326C161.396 131.35 168.095 116.058 169.271 99.269C169.388 97.596 168.007 96.1871 166.332 96.1871H151.523C149.995 96.1871 148.761 97.3905 148.614 98.9168C147.586 110.305 143.031 120.666 136.067 128.973C135.068 130.147 135.098 131.879 136.185 132.965L146.645 143.414C147.821 144.588 149.819 144.588 150.906 143.296L150.965 143.326ZM99.3668 18.9052C116.174 20.0792 131.483 26.7714 143.471 37.1912L143.442 37.2499C144.735 38.3359 144.735 40.3318 143.559 41.5059L133.099 51.955C132.012 53.041 130.278 53.0704 129.103 52.0724C120.787 45.1161 110.415 40.5666 99.0142 39.5393C97.4863 39.3926 96.2816 38.1598 96.2816 36.6335V21.8403C96.2816 20.1673 97.692 18.7878 99.3668 18.9052ZM136.095 58.9981C143.03 67.3046 147.614 77.6657 148.642 89.0541C148.789 90.5804 150.023 91.7838 151.551 91.7838H166.36C168.035 91.7838 169.416 90.3749 169.299 88.7019C168.123 71.9128 161.424 56.6207 150.993 44.6452C149.876 43.3831 147.908 43.3537 146.732 44.5278L136.272 54.977C135.185 56.063 135.155 57.7947 136.154 58.9688L136.095 58.9981ZM89.1433 39.5095C77.7425 40.5368 67.3702 45.0863 59.0547 52.0427L59.0253 51.984C57.85 52.9819 56.1163 52.9526 55.0292 51.8666L44.5687 41.4174C43.3933 40.2433 43.4227 38.2768 44.6862 37.1614C56.6746 26.7416 71.9834 20.0495 88.7907 18.8754C90.4655 18.758 91.8759 20.1375 91.8759 21.8105V36.6037C91.8759 38.13 90.6712 39.3628 89.1433 39.5095ZM37.1939 44.6762C26.7628 56.6516 20.0634 71.9438 18.888 88.7329C18.7705 90.4059 20.1515 91.8148 21.8264 91.8148H36.6356C38.1636 91.8148 39.3977 90.6114 39.5446 89.0851C40.573 77.6967 45.1274 67.3356 52.0913 59.0291C53.0903 57.855 53.0609 56.1233 51.9737 55.0373L41.5133 44.5881C40.3379 43.4141 38.3399 43.4141 37.2527 44.7055L37.1939 44.6762ZM39.5148 98.9168C40.5432 110.305 45.127 120.666 52.0615 128.973L52.0027 129.002C53.0018 130.176 52.9724 131.908 51.8852 132.994L41.4247 143.443C40.2494 144.617 38.2807 144.588 37.1641 143.326C26.733 131.35 20.0336 116.058 18.8583 99.269C18.7407 97.596 20.1218 96.1871 21.7966 96.1871H36.6058C38.1338 96.1871 39.3679 97.3905 39.5148 98.9168ZM44.6874 150.811C56.6758 161.231 71.9846 167.923 88.7919 169.097C90.4667 169.215 91.8771 167.835 91.8771 166.162V151.369C91.8771 149.843 90.6724 148.61 89.1445 148.463C77.7437 147.436 67.3714 142.886 59.0559 135.93C57.8805 134.932 56.1469 134.961 55.0597 136.047L44.5992 146.496C43.4239 147.671 43.4239 149.666 44.7168 150.752L44.6874 150.811ZM89.7768 69.6298L96.4334 55.4612L111.005 86.4557L89.7768 69.6298ZM89.9627 86.7066L93.5859 94.4055L106.618 93.1992L104.534 88.7551L83.3061 71.9292L71.7905 96.4312L86.0193 95.1111L89.9627 86.7066ZM110.733 98.5687L122.277 123.139H65.8786L75.9056 101.801L90.1288 100.481L85.326 110.695H102.824L97.6954 99.7807L110.733 98.5687Z"
          fill="url(#paint0_linear_3087_19565)"/>
    <path d="M310.403 91.2905L309.502 91.0042L310.365 90.6183C310.511 90.5519 325.184 83.8214 325.184 66.7296C325.184 51.9283 311.262 36.1934 285.455 36.1934H233.195V151.79H288.795C309.556 151.79 331.034 139.242 331.034 118.242C331.034 98.0708 310.608 91.3527 310.403 91.2905ZM264.207 60.8082H282.408C289.113 60.8082 293.631 64.9577 293.631 71.0907C293.631 77.3398 289.226 81.3773 282.408 81.3773H264.207V60.8082ZM286.574 127.171H264.207V103.822H286.574C294 103.822 299.184 108.623 299.184 115.499C299.184 122.374 294 127.175 286.574 127.175V127.171Z"
          fill="white"/>
    <path d="M310.403 91.2905L309.502 91.0042L310.365 90.6183C310.511 90.5519 325.184 83.8214 325.184 66.7296C325.184 51.9283 311.262 36.1934 285.455 36.1934H233.195V151.79H288.795C309.556 151.79 331.034 139.242 331.034 118.242C331.034 98.0708 310.608 91.3527 310.403 91.2905ZM264.207 60.8082H282.408C289.113 60.8082 293.631 64.9577 293.631 71.0907C293.631 77.3398 289.226 81.3773 282.408 81.3773H264.207V60.8082ZM286.574 127.171H264.207V103.822H286.574C294 103.822 299.184 108.623 299.184 115.499C299.184 122.374 294 127.175 286.574 127.175V127.171Z"
          fill="url(#paint1_linear_3087_19565)"/>
    <path d="M680.002 151.796H711.014V63.8183H743.593V36.1992H647.423V63.8183H680.002V151.796Z" fill="white"/>
    <path d="M680.002 151.796H711.014V63.8183H743.593V36.1992H647.423V63.8183H680.002V151.796Z"
          fill="url(#paint2_linear_3087_19565)"/>
    <path d="M375.343 36.1992H344.331V151.796H410.357L421.593 122.413H375.343V36.1992Z" fill="white"/>
    <path d="M375.343 36.1992H344.331V151.796H410.357L421.593 122.413H375.343V36.1992Z"
          fill="url(#paint3_linear_3087_19565)"/>
    <path d="M603.863 81.3954C593.646 78.2335 585.578 75.7396 585.578 69.4448C585.578 63.5774 591.353 59.1499 599.023 59.1499C609.391 59.1499 616.771 66.4904 618.246 68.0797L636.405 49.3031C634.699 47.2657 621.737 32.9043 595.683 32.9043C574.565 32.9043 551.775 46.5562 551.775 68.59C551.775 92.0513 571.376 98.5121 587.125 103.699C597.329 107.064 605.388 109.72 605.388 116.089C605.388 122.268 600.837 128.501 590.67 128.501C577.012 128.501 567.621 118.6 565.945 116.695L554.286 128.787L560.991 146.281C570.911 152.115 582.02 155.074 594.01 155.074C607.84 155.074 619.637 151.211 628.124 143.895C636.057 137.061 640.424 127.65 640.424 117.388C640.411 92.7028 620.148 86.4371 603.863 81.3954Z"
          fill="white"/>
    <path d="M603.863 81.3954C593.646 78.2335 585.578 75.7396 585.578 69.4448C585.578 63.5774 591.353 59.1499 599.023 59.1499C609.391 59.1499 616.771 66.4904 618.246 68.0797L636.405 49.3031C634.699 47.2657 621.737 32.9043 595.683 32.9043C574.565 32.9043 551.775 46.5562 551.775 68.59C551.775 92.0513 571.376 98.5121 587.125 103.699C597.329 107.064 605.388 109.72 605.388 116.089C605.388 122.268 600.837 128.501 590.67 128.501C577.012 128.501 567.621 118.6 565.945 116.695L554.286 128.787L560.991 146.281C570.911 152.115 582.02 155.074 594.01 155.074C607.84 155.074 619.637 151.211 628.124 143.895C636.057 137.061 640.424 127.65 640.424 117.388C640.411 92.7028 620.148 86.4371 603.863 81.3954Z"
          fill="url(#paint4_linear_3087_19565)"/>
    <path d="M548.82 151.792L504.624 36.1992H469.887L425.69 151.792H459.305L468.839 126.87H505.672L515.202 151.788H548.816L548.82 151.792ZM477.707 103.687L486.654 80.3126H487.857L496.808 103.703L477.707 103.687Z"
          fill="white"/>
    <path d="M548.82 151.792L504.624 36.1992H469.887L425.69 151.792H459.305L468.839 126.87H505.672L515.202 151.788H548.816L548.82 151.792ZM477.707 103.687L486.654 80.3126H487.857L496.808 103.703L477.707 103.687Z"
          fill="url(#paint5_linear_3087_19565)"/>
    <path d="M868.688 65.5914L857.452 36.2129H791.426H758.918V63.832H791.426V151.806H822.438V65.5914H868.688Z"
          fill="white"/>
    <path d="M868.688 65.5914L857.452 36.2129H791.426H758.918V63.832H791.426V151.806H822.438V65.5914H868.688Z"
          fill="url(#paint6_linear_3087_19565)"/>
    <path d="M751.258 151.8C759.822 151.8 766.764 144.926 766.764 136.447C766.764 127.968 759.822 121.094 751.258 121.094C742.694 121.094 735.752 127.968 735.752 136.447C735.752 144.926 742.694 151.8 751.258 151.8Z"
          fill="white"/>
    <path d="M751.258 151.8C759.822 151.8 766.764 144.926 766.764 136.447C766.764 127.968 759.822 121.094 751.258 121.094C742.694 121.094 735.752 127.968 735.752 136.447C735.752 144.926 742.694 151.8 751.258 151.8Z"
          fill="url(#paint7_linear_3087_19565)"/>
    <path d="M962.305 36.1992L934.956 107.695H933.754L906.404 36.1992H872.79L916.986 151.792H951.724L995.92 36.1992H962.305Z"
          fill="white"/>
    <path d="M962.305 36.1992L934.956 107.695H933.754L906.404 36.1992H872.79L916.986 151.792H951.724L995.92 36.1992H962.305Z"
          fill="url(#paint8_linear_3087_19565)"/>
    <defs>
        <linearGradient id="paint0_linear_3087_19565" x1="172.096" y1="17.8634" x2="163.75" y2="174.07"
                        gradientUnits="userSpaceOnUse">
            <stop stop-color="#FAFCED"/>
            <stop offset="1" stop-color="#FFC046" stop-opacity="0.5"/>
        </linearGradient>
        <linearGradient id="paint1_linear_3087_19565" x1="278.472" y1="150.927" x2="278.472" y2="36.1934"
                        gradientUnits="userSpaceOnUse">
            <stop stop-color="#FFC046" stop-opacity="0.5"/>
            <stop offset="1" stop-color="white"/>
        </linearGradient>
        <linearGradient id="paint2_linear_3087_19565" x1="691.927" y1="150.933" x2="691.927" y2="36.1992"
                        gradientUnits="userSpaceOnUse">
            <stop stop-color="#FFC046" stop-opacity="0.5"/>
            <stop offset="1" stop-color="white"/>
        </linearGradient>
        <linearGradient id="paint3_linear_3087_19565" x1="380.085" y1="150.933" x2="380.085" y2="36.1992"
                        gradientUnits="userSpaceOnUse">
            <stop stop-color="#FFC046" stop-opacity="0.5"/>
            <stop offset="1" stop-color="white"/>
        </linearGradient>
        <linearGradient id="paint4_linear_3087_19565" x1="592.799" y1="154.162" x2="592.799" y2="32.9043"
                        gradientUnits="userSpaceOnUse">
            <stop stop-color="#FFC046" stop-opacity="0.5"/>
            <stop offset="1" stop-color="white"/>
        </linearGradient>
        <linearGradient id="paint5_linear_3087_19565" x1="482.671" y1="150.929" x2="482.671" y2="36.1992"
                        gradientUnits="userSpaceOnUse">
            <stop stop-color="#FFC046" stop-opacity="0.5"/>
            <stop offset="1" stop-color="white"/>
        </linearGradient>
        <linearGradient id="paint6_linear_3087_19565" x1="809.716" y1="150.943" x2="809.716" y2="36.2129"
                        gradientUnits="userSpaceOnUse">
            <stop stop-color="#FFC046" stop-opacity="0.5"/>
            <stop offset="1" stop-color="white"/>
        </linearGradient>
        <linearGradient id="paint7_linear_3087_19565" x1="750.103" y1="151.571" x2="750.103" y2="121.094"
                        gradientUnits="userSpaceOnUse">
            <stop stop-color="#FFC046" stop-opacity="0.5"/>
            <stop offset="1" stop-color="white"/>
        </linearGradient>
        <linearGradient id="paint8_linear_3087_19565" x1="929.77" y1="150.929" x2="929.77" y2="36.1992"
                        gradientUnits="userSpaceOnUse">
            <stop stop-color="#FFC046" stop-opacity="0.5"/>
            <stop offset="1" stop-color="white"/>
        </linearGradient>
    </defs>
</svg>